<svg width="150" height="41" viewBox="0 0 150 41" fill="none" xmlns="http://www.w3.org/2000/svg">
<path d="M0 20C0 8.95431 8.95431 0 20 0H130C141.046 0 150 8.95431 150 20V21C150 32.0457 141.046 41 130 41H20C8.9543 41 0 32.0457 0 21V20Z" fill="url(#paint0_linear_211_6)"/>
<path d="M54.2734 28C53.9844 28 53.7734 27.9336 53.6406 27.8008C53.5078 27.668 53.4414 27.457 53.4414 27.168V14.2422C53.4414 13.9531 53.5078 13.7461 53.6406 13.6211C53.7734 13.4883 53.9844 13.4219 54.2734 13.4219H58.3984C60.0859 13.4219 61.3281 13.75 62.125 14.4062C62.9219 15.0547 63.3203 15.9531 63.3203 17.1016C63.3203 17.7891 63.1055 18.4219 62.6758 19C62.2461 19.5781 61.707 20 61.0586 20.2656L61.082 20.3477C61.6289 20.457 62.1133 20.6797 62.5352 21.0156C62.9648 21.3516 63.2969 21.7617 63.5312 22.2461C63.7734 22.7305 63.8945 23.2383 63.8945 23.7695C63.8945 25.1367 63.4609 26.1836 62.5938 26.9102C61.7266 27.6367 60.4258 28 58.6914 28H54.2734ZM58.082 19.2227C58.6914 19.2227 59.1641 19.0781 59.5 18.7891C59.8438 18.4922 60.0156 18.1172 60.0156 17.6641C60.0156 16.6328 59.3828 16.1172 58.1172 16.1172H56.6523V19.2227H58.082ZM58.6914 25.2695C59.293 25.2695 59.7617 25.125 60.0977 24.8359C60.4336 24.5391 60.6016 24.1211 60.6016 23.582C60.6016 23.0508 60.4062 22.6484 60.0156 22.375C59.6328 22.1016 59.0781 21.9648 58.3516 21.9648H56.6523V25.2695H58.6914Z" fill="black"/>
<path d="M68.3125 28.1758C67.25 28.1758 66.4688 27.8984 65.9688 27.3438C65.4766 26.7812 65.2305 26.0391 65.2305 25.1172C65.2305 24.4219 65.375 23.7969 65.6641 23.2422C65.9531 22.6797 66.5391 22.207 67.4219 21.8242C68.3047 21.4414 69.5664 21.25 71.207 21.25V20.5586C71.207 20.1523 71.0781 19.8516 70.8203 19.6562C70.5625 19.4609 70.1523 19.3633 69.5898 19.3633C69.1211 19.3633 68.7188 19.4141 68.3828 19.5156C68.0469 19.6094 67.6836 19.7383 67.293 19.9023C67.0898 19.9961 66.9648 20.043 66.918 20.043C66.7773 20.043 66.6211 19.9375 66.4492 19.7266C66.2852 19.5156 66.1406 19.2734 66.0156 19C65.8906 18.7266 65.8281 18.5195 65.8281 18.3789C65.8281 18.1367 66 17.9062 66.3438 17.6875C66.6953 17.4609 67.1758 17.2812 67.7852 17.1484C68.3945 17.0078 69.0703 16.9375 69.8125 16.9375C71.375 16.9375 72.5117 17.25 73.2227 17.875C73.9336 18.4922 74.2891 19.3398 74.2891 20.418V24.3203C74.2891 24.9688 74.3047 25.4727 74.3359 25.832C74.375 26.1914 74.4258 26.5469 74.4883 26.8984C74.5273 27.1094 74.5469 27.2578 74.5469 27.3438C74.5469 27.5 74.3984 27.6289 74.1016 27.7305C73.8125 27.832 73.4805 27.9062 73.1055 27.9531C72.7305 28 72.4297 28.0234 72.2031 28.0234C71.9609 28.0234 71.7852 27.9219 71.6758 27.7188C71.5742 27.5078 71.4922 27.2227 71.4297 26.8633C71.4219 26.8164 71.4141 26.7695 71.4062 26.7227C71.3984 26.6758 71.3867 26.6289 71.3711 26.582C71.293 26.7305 71.125 26.9297 70.8672 27.1797C70.6172 27.4297 70.2734 27.6602 69.8359 27.8711C69.3984 28.0742 68.8906 28.1758 68.3125 28.1758ZM69.332 25.7266C69.7227 25.7266 70.0898 25.6055 70.4336 25.3633C70.7773 25.1133 71.0352 24.7969 71.207 24.4141V23.2656C69.2617 23.2656 68.2891 23.7773 68.2891 24.8008C68.2891 25.0742 68.3789 25.2969 68.5586 25.4688C68.7461 25.6406 69.0039 25.7266 69.332 25.7266Z" fill="black"/>
<path d="M81.8359 28.1758C80.0625 28.1758 78.7461 27.7188 77.8867 26.8047C77.0273 25.8828 76.5977 24.4883 76.5977 22.6211C76.5977 20.7383 77.0312 19.3203 77.8984 18.3672C78.7656 17.4141 80.1172 16.9375 81.9531 16.9375C82.4766 16.9375 83.0039 16.9961 83.5352 17.1133C84.0742 17.2227 84.5195 17.3867 84.8711 17.6055C85.2305 17.8164 85.4102 18.0742 85.4102 18.3789C85.4102 18.5039 85.3398 18.6992 85.1992 18.9648C85.0664 19.2305 84.9102 19.4688 84.7305 19.6797C84.5586 19.8828 84.4141 19.9844 84.2969 19.9844C84.2422 19.9844 84.1211 19.9297 83.9336 19.8203C83.6367 19.6797 83.3555 19.5703 83.0898 19.4922C82.8242 19.4062 82.5 19.3633 82.1172 19.3633C81.2969 19.3633 80.6992 19.625 80.3242 20.1484C79.9492 20.6641 79.7617 21.4609 79.7617 22.5391C79.7617 23.625 79.9375 24.4297 80.2891 24.9531C80.6484 25.4688 81.2188 25.7266 82 25.7266C82.4297 25.7266 82.8047 25.6836 83.125 25.5977C83.4453 25.5039 83.75 25.3867 84.0391 25.2461C84.0938 25.2227 84.1602 25.1953 84.2383 25.1641C84.3164 25.1328 84.375 25.1172 84.4141 25.1172C84.5547 25.1172 84.707 25.2188 84.8711 25.4219C85.043 25.6172 85.1875 25.8438 85.3047 26.1016C85.4297 26.3594 85.4922 26.5586 85.4922 26.6992C85.4922 27.0586 85.2578 27.3477 84.7891 27.5664C84.3203 27.7852 83.7969 27.9414 83.2188 28.0352C82.6406 28.1289 82.1797 28.1758 81.8359 28.1758Z" fill="black"/>
<path d="M88.457 28.0352C87.6211 28.0352 87.2031 27.8164 87.2031 27.3789V12.9648C87.2031 12.7383 87.3047 12.5703 87.5078 12.4609C87.7109 12.3438 88.0273 12.2852 88.457 12.2852H89.0312C89.8672 12.2852 90.2852 12.5117 90.2852 12.9648V21.2031L90.3555 21.2266L92.8867 17.4648C92.9961 17.3008 93.1484 17.1953 93.3438 17.1484C93.5391 17.0938 93.8086 17.0664 94.1523 17.0664H94.9258C95.707 17.0664 96.0977 17.1719 96.0977 17.3828C96.0977 17.4922 96.0312 17.625 95.8984 17.7812L93.0156 21.918L96.4023 27.2852C96.5195 27.4805 96.5781 27.625 96.5781 27.7188C96.5781 27.9297 96.1797 28.0352 95.3828 28.0352H94.5156C94.1797 28.0352 93.9062 28.0078 93.6953 27.9531C93.4844 27.8984 93.3398 27.793 93.2617 27.6367L90.3555 22.8438L90.2852 22.8789V27.3789C90.2852 27.8164 89.8672 28.0352 89.0312 28.0352H88.457Z" fill="black"/>
<defs>
<linearGradient id="paint0_linear_211_6" x1="75" y1="0" x2="75" y2="41" gradientUnits="userSpaceOnUse">
<stop stop-color="#166740"/>
<stop offset="1" stop-color="#B18A26"/>
</linearGradient>
</defs>
</svg>
