<svg width="150" height="41" viewBox="0 0 150 41" fill="none" xmlns="http://www.w3.org/2000/svg">
<path d="M0 20C0 8.95431 8.95431 0 20 0H130C141.046 0 150 8.95431 150 20V21C150 32.0457 141.046 41 130 41H20C8.9543 41 0 32.0457 0 21V20Z" fill="url(#paint0_linear_212_11)"/>
<path d="M55.6953 27.0352C54.8594 27.0352 54.4414 26.8164 54.4414 26.3789V13.043C54.4414 12.8164 54.543 12.6484 54.7461 12.5391C54.9492 12.4219 55.2656 12.3633 55.6953 12.3633H56.5859C56.9219 12.3633 57.1992 12.4023 57.418 12.4805C57.6367 12.5586 57.8164 12.7109 57.957 12.9375L62.8789 20.5195L63.4414 21.3633V13.043C63.4414 12.8164 63.543 12.6484 63.7461 12.5391C63.9492 12.4219 64.2656 12.3633 64.6953 12.3633H65.293C65.7227 12.3633 66.0352 12.4219 66.2305 12.5391C66.4336 12.6484 66.5352 12.8164 66.5352 13.043V26.3789C66.5352 26.8164 66.1211 27.0352 65.293 27.0352H64.4961C64.1523 27.0352 63.875 27 63.6641 26.9297C63.4531 26.8516 63.2773 26.7031 63.1367 26.4844L57.9805 18.5977L57.5352 17.9414V26.3789C57.5352 26.8164 57.1211 27.0352 56.293 27.0352H55.6953Z" fill="black"/>
<path d="M74.293 27.1758C72.4648 27.1758 71.1016 26.6875 70.2031 25.7109C69.3047 24.7266 68.8555 23.3633 68.8555 21.6211C68.8555 19.6602 69.3047 18.2227 70.2031 17.3086C71.1016 16.3945 72.3398 15.9375 73.918 15.9375C74.9648 15.9375 75.8203 16.1758 76.4844 16.6523C77.1562 17.1289 77.6445 17.7695 77.9492 18.5742C78.2617 19.3789 78.418 20.2891 78.418 21.3047C78.418 21.4219 78.3477 21.5781 78.207 21.7734C78.0742 21.9688 77.9219 22.1445 77.75 22.3008C77.5781 22.457 77.4453 22.5352 77.3516 22.5352H72.043C72.1133 23.332 72.3477 23.8984 72.7461 24.2344C73.1523 24.5625 73.7148 24.7266 74.4336 24.7266C74.8242 24.7266 75.1758 24.6836 75.4883 24.5977C75.8086 24.5039 76.1484 24.3828 76.5078 24.2344C76.7266 24.1328 76.875 24.082 76.9531 24.082C77.0938 24.082 77.2461 24.1836 77.4102 24.3867C77.582 24.582 77.7266 24.8086 77.8438 25.0664C77.9688 25.3242 78.0312 25.5234 78.0312 25.6641C78.0312 25.9844 77.8125 26.2578 77.375 26.4844C76.9453 26.7109 76.4336 26.8828 75.8398 27C75.2539 27.1172 74.7383 27.1758 74.293 27.1758ZM75.418 20.4844C75.418 19.8438 75.293 19.332 75.043 18.9492C74.793 18.5586 74.418 18.3633 73.918 18.3633C72.8867 18.3633 72.2617 19.0703 72.043 20.4844H75.418Z" fill="black"/>
<path d="M80.6445 27.0352C79.7695 27.0352 79.332 26.9102 79.332 26.6602C79.332 26.6055 79.3555 26.5352 79.4023 26.4492C79.4492 26.3555 79.5039 26.2539 79.5664 26.1445L82.707 21.4805L79.7422 16.9805C79.5938 16.7305 79.5195 16.5508 79.5195 16.4414C79.5195 16.1914 79.957 16.0664 80.832 16.0664H81.5C81.8672 16.0664 82.1445 16.0898 82.332 16.1367C82.5195 16.1836 82.6641 16.293 82.7656 16.4648L84.043 18.5156L84.3477 19.0195L84.7109 18.4805L86 16.4648C86.1016 16.293 86.2461 16.1836 86.4336 16.1367C86.6211 16.0898 86.8984 16.0664 87.2656 16.0664H87.875C88.75 16.0664 89.1875 16.1914 89.1875 16.4414C89.1875 16.5352 89.1133 16.707 88.9648 16.957L85.918 21.457L89 26.1211C89.1484 26.3555 89.2227 26.5352 89.2227 26.6602C89.2227 26.9102 88.7891 27.0352 87.9219 27.0352H87.2422C86.8828 27.0352 86.6094 27.0117 86.4219 26.9648C86.2344 26.918 86.0859 26.8086 85.9766 26.6367L84.5469 24.3516C84.5156 24.2969 84.4688 24.2266 84.4062 24.1406C84.3516 24.0547 84.3047 23.9805 84.2656 23.918C84.2344 23.9648 84.1914 24.0352 84.1367 24.1289C84.082 24.2148 84.0391 24.2891 84.0078 24.3516L82.543 26.6367C82.4336 26.8086 82.2852 26.918 82.0977 26.9648C81.9102 27.0117 81.6328 27.0352 81.2656 27.0352H80.6445Z" fill="black"/>
<path d="M93.9805 27.1758C92.9883 27.1758 92.2305 26.8984 91.707 26.3438C91.1914 25.7812 90.9336 24.9297 90.9336 23.7891V18.5391H90.6055C90.3867 18.5391 90.2266 18.457 90.125 18.293C90.0312 18.1289 89.9844 17.8633 89.9844 17.4961V17.1445C89.9844 16.7773 90.0312 16.5117 90.125 16.3477C90.2266 16.1836 90.3867 16.1016 90.6055 16.1016H90.9336L91.2031 14.1211C91.2656 13.6836 91.6406 13.4648 92.3281 13.4648H92.9844C93.3438 13.4648 93.6055 13.5195 93.7695 13.6289C93.9414 13.7383 94.0273 13.9023 94.0273 14.1211V16.1016H95.0469C95.2656 16.1016 95.4219 16.1836 95.5156 16.3477C95.6172 16.5117 95.668 16.7773 95.668 17.1445V17.4961C95.668 17.8633 95.6172 18.1289 95.5156 18.293C95.4219 18.457 95.2656 18.5391 95.0469 18.5391H94.0273V23.8242C94.0273 24.1445 94.082 24.375 94.1914 24.5156C94.3086 24.6562 94.5 24.7266 94.7656 24.7266C94.8438 24.7266 94.9492 24.7148 95.082 24.6914C95.2148 24.6602 95.2969 24.6445 95.3281 24.6445C95.4531 24.6445 95.5625 24.75 95.6562 24.9609C95.7578 25.1641 95.8359 25.3906 95.8906 25.6406C95.9531 25.8906 95.9844 26.0586 95.9844 26.1445C95.9844 26.832 95.3164 27.1758 93.9805 27.1758Z" fill="black"/>
<defs>
<linearGradient id="paint0_linear_212_11" x1="75" y1="0" x2="75" y2="41" gradientUnits="userSpaceOnUse">
<stop stop-color="#166740"/>
<stop offset="1" stop-color="#B18A26"/>
</linearGradient>
</defs>
</svg>
