<svg width="150" height="41" viewBox="0 0 150 41" fill="none" xmlns="http://www.w3.org/2000/svg">
<path d="M0 20C0 8.95431 8.95431 0 20 0H130C141.046 0 150 8.95431 150 20V21C150 32.0457 141.046 41 130 41H20C8.9543 41 0 32.0457 0 21V20Z" fill="url(#paint0_linear_211_7)"/>
<path d="M54.6953 28.0352C53.8594 28.0352 53.4414 27.8164 53.4414 27.3789V14.043C53.4414 13.8164 53.543 13.6484 53.7461 13.5391C53.9492 13.4219 54.2656 13.3633 54.6953 13.3633H55.5859C55.9219 13.3633 56.1992 13.4023 56.418 13.4805C56.6367 13.5586 56.8164 13.7109 56.957 13.9375L61.8789 21.5195L62.4414 22.3633V14.043C62.4414 13.8164 62.543 13.6484 62.7461 13.5391C62.9492 13.4219 63.2656 13.3633 63.6953 13.3633H64.293C64.7227 13.3633 65.0352 13.4219 65.2305 13.5391C65.4336 13.6484 65.5352 13.8164 65.5352 14.043V27.3789C65.5352 27.8164 65.1211 28.0352 64.293 28.0352H63.4961C63.1523 28.0352 62.875 28 62.6641 27.9297C62.4531 27.8516 62.2773 27.7031 62.1367 27.4844L56.9805 19.5977L56.5352 18.9414V27.3789C56.5352 27.8164 56.1211 28.0352 55.293 28.0352H54.6953Z" fill="black"/>
<path d="M73.293 28.1758C71.4648 28.1758 70.1016 27.6875 69.2031 26.7109C68.3047 25.7266 67.8555 24.3633 67.8555 22.6211C67.8555 20.6602 68.3047 19.2227 69.2031 18.3086C70.1016 17.3945 71.3398 16.9375 72.918 16.9375C73.9648 16.9375 74.8203 17.1758 75.4844 17.6523C76.1562 18.1289 76.6445 18.7695 76.9492 19.5742C77.2617 20.3789 77.418 21.2891 77.418 22.3047C77.418 22.4219 77.3477 22.5781 77.207 22.7734C77.0742 22.9688 76.9219 23.1445 76.75 23.3008C76.5781 23.457 76.4453 23.5352 76.3516 23.5352H71.043C71.1133 24.332 71.3477 24.8984 71.7461 25.2344C72.1523 25.5625 72.7148 25.7266 73.4336 25.7266C73.8242 25.7266 74.1758 25.6836 74.4883 25.5977C74.8086 25.5039 75.1484 25.3828 75.5078 25.2344C75.7266 25.1328 75.875 25.082 75.9531 25.082C76.0938 25.082 76.2461 25.1836 76.4102 25.3867C76.582 25.582 76.7266 25.8086 76.8438 26.0664C76.9688 26.3242 77.0312 26.5234 77.0312 26.6641C77.0312 26.9844 76.8125 27.2578 76.375 27.4844C75.9453 27.7109 75.4336 27.8828 74.8398 28C74.2539 28.1172 73.7383 28.1758 73.293 28.1758ZM74.418 21.4844C74.418 20.8438 74.293 20.332 74.043 19.9492C73.793 19.5586 73.418 19.3633 72.918 19.3633C71.8867 19.3633 71.2617 20.0703 71.043 21.4844H74.418Z" fill="black"/>
<path d="M79.6445 28.0352C78.7695 28.0352 78.332 27.9102 78.332 27.6602C78.332 27.6055 78.3555 27.5352 78.4023 27.4492C78.4492 27.3555 78.5039 27.2539 78.5664 27.1445L81.707 22.4805L78.7422 17.9805C78.5938 17.7305 78.5195 17.5508 78.5195 17.4414C78.5195 17.1914 78.957 17.0664 79.832 17.0664H80.5C80.8672 17.0664 81.1445 17.0898 81.332 17.1367C81.5195 17.1836 81.6641 17.293 81.7656 17.4648L83.043 19.5156L83.3477 20.0195L83.7109 19.4805L85 17.4648C85.1016 17.293 85.2461 17.1836 85.4336 17.1367C85.6211 17.0898 85.8984 17.0664 86.2656 17.0664H86.875C87.75 17.0664 88.1875 17.1914 88.1875 17.4414C88.1875 17.5352 88.1133 17.707 87.9648 17.957L84.918 22.457L88 27.1211C88.1484 27.3555 88.2227 27.5352 88.2227 27.6602C88.2227 27.9102 87.7891 28.0352 86.9219 28.0352H86.2422C85.8828 28.0352 85.6094 28.0117 85.4219 27.9648C85.2344 27.918 85.0859 27.8086 84.9766 27.6367L83.5469 25.3516C83.5156 25.2969 83.4688 25.2266 83.4062 25.1406C83.3516 25.0547 83.3047 24.9805 83.2656 24.918C83.2344 24.9648 83.1914 25.0352 83.1367 25.1289C83.082 25.2148 83.0391 25.2891 83.0078 25.3516L81.543 27.6367C81.4336 27.8086 81.2852 27.918 81.0977 27.9648C80.9102 28.0117 80.6328 28.0352 80.2656 28.0352H79.6445Z" fill="black"/>
<path d="M92.9805 28.1758C91.9883 28.1758 91.2305 27.8984 90.707 27.3438C90.1914 26.7812 89.9336 25.9297 89.9336 24.7891V19.5391H89.6055C89.3867 19.5391 89.2266 19.457 89.125 19.293C89.0312 19.1289 88.9844 18.8633 88.9844 18.4961V18.1445C88.9844 17.7773 89.0312 17.5117 89.125 17.3477C89.2266 17.1836 89.3867 17.1016 89.6055 17.1016H89.9336L90.2031 15.1211C90.2656 14.6836 90.6406 14.4648 91.3281 14.4648H91.9844C92.3438 14.4648 92.6055 14.5195 92.7695 14.6289C92.9414 14.7383 93.0273 14.9023 93.0273 15.1211V17.1016H94.0469C94.2656 17.1016 94.4219 17.1836 94.5156 17.3477C94.6172 17.5117 94.668 17.7773 94.668 18.1445V18.4961C94.668 18.8633 94.6172 19.1289 94.5156 19.293C94.4219 19.457 94.2656 19.5391 94.0469 19.5391H93.0273V24.8242C93.0273 25.1445 93.082 25.375 93.1914 25.5156C93.3086 25.6562 93.5 25.7266 93.7656 25.7266C93.8438 25.7266 93.9492 25.7148 94.082 25.6914C94.2148 25.6602 94.2969 25.6445 94.3281 25.6445C94.4531 25.6445 94.5625 25.75 94.6562 25.9609C94.7578 26.1641 94.8359 26.3906 94.8906 26.6406C94.9531 26.8906 94.9844 27.0586 94.9844 27.1445C94.9844 27.832 94.3164 28.1758 92.9805 28.1758Z" fill="black"/>
<defs>
<linearGradient id="paint0_linear_211_7" x1="75" y1="0" x2="75" y2="41" gradientUnits="userSpaceOnUse">
<stop stop-color="#89874B"/>
<stop offset="1" stop-color="#7EA86A"/>
</linearGradient>
</defs>
</svg>
